<svg xmlns="http://www.w3.org/2000/svg" width="900" height="500" viewBox="0 0 900 500">
<rect width="100%" height="100%" fill="#ffffff"/>
<style>text{font-family:Arial,"Microsoft YaHei",sans-serif;fill:#222}.axis{stroke:#444;stroke-width:1}.grid{stroke:#ddd;stroke-width:1}.small{font-size:12px}.label{font-size:13px}.title{font-size:20px;font-weight:600}</style>
<text x="450.0" y="32" text-anchor="middle" class="title">Case-summary robustness: noisy ASR vs proxy reference</text>
<text x="18" y="242.5" text-anchor="middle" transform="rotate(-90 18 242.5)" class="label">Rate</text>
<line x1="85" y1="410.0" x2="870" y2="410.0" class="grid"/>
<text x="77" y="414.0" text-anchor="end" class="small">0.00</text>
<line x1="85" y1="343.0" x2="870" y2="343.0" class="grid"/>
<text x="77" y="347.0" text-anchor="end" class="small">0.20</text>
<line x1="85" y1="276.0" x2="870" y2="276.0" class="grid"/>
<text x="77" y="280.0" text-anchor="end" class="small">0.40</text>
<line x1="85" y1="209.0" x2="870" y2="209.0" class="grid"/>
<text x="77" y="213.0" text-anchor="end" class="small">0.60</text>
<line x1="85" y1="142.0" x2="870" y2="142.0" class="grid"/>
<text x="77" y="146.0" text-anchor="end" class="small">0.80</text>
<line x1="85" y1="75.0" x2="870" y2="75.0" class="grid"/>
<text x="77" y="79.0" text-anchor="end" class="small">1.00</text>
<line x1="85" y1="75" x2="85" y2="410" class="axis"/>
<line x1="85" y1="410" x2="870" y2="410" class="axis"/>
<rect x="118.5" y="356.4" width="44.0" height="53.6" fill="#4C78A8" rx="2"/>
<text x="140.5" y="352.4" text-anchor="middle" class="small">0.16</text>
<rect x="164.5" y="410.0" width="44.0" height="0.0" fill="#F58518" rx="2"/>
<text x="186.5" y="406.0" text-anchor="middle" class="small">0.00</text>
<text x="163.5" y="434" text-anchor="middle" class="label">0068</text>
<rect x="275.5" y="203.8" width="44.0" height="206.2" fill="#4C78A8" rx="2"/>
<text x="297.5" y="199.8" text-anchor="middle" class="small">0.62</text>
<rect x="321.5" y="218.6" width="44.0" height="191.4" fill="#F58518" rx="2"/>
<text x="343.5" y="214.6" text-anchor="middle" class="small">0.57</text>
<text x="320.5" y="434" text-anchor="middle" class="label">0057</text>
<rect x="432.5" y="319.5" width="44.0" height="90.5" fill="#4C78A8" rx="2"/>
<text x="454.5" y="315.5" text-anchor="middle" class="small">0.27</text>
<rect x="478.5" y="335.6" width="44.0" height="74.4" fill="#F58518" rx="2"/>
<text x="500.5" y="331.6" text-anchor="middle" class="small">0.22</text>
<text x="477.5" y="434" text-anchor="middle" class="label">0040</text>
<rect x="589.5" y="231.3" width="44.0" height="178.7" fill="#4C78A8" rx="2"/>
<text x="611.5" y="227.3" text-anchor="middle" class="small">0.53</text>
<rect x="635.5" y="209.0" width="44.0" height="201.0" fill="#F58518" rx="2"/>
<text x="657.5" y="205.0" text-anchor="middle" class="small">0.60</text>
<text x="634.5" y="434" text-anchor="middle" class="label">0008</text>
<rect x="746.5" y="340.2" width="44.0" height="69.8" fill="#4C78A8" rx="2"/>
<text x="768.5" y="336.2" text-anchor="middle" class="small">0.21</text>
<rect x="792.5" y="309.5" width="44.0" height="100.5" fill="#F58518" rx="2"/>
<text x="814.5" y="305.5" text-anchor="middle" class="small">0.30</text>
<text x="791.5" y="434" text-anchor="middle" class="label">0021</text>
<rect x="85" y="47" width="14" height="14" fill="#4C78A8" rx="2"/>
<text x="105" y="59" class="small">Fact F1</text>
<rect x="205" y="47" width="14" height="14" fill="#F58518" rx="2"/>
<text x="225" y="59" class="small">Critical fact recall</text>
</svg>
