<svg xmlns="http://www.w3.org/2000/svg" width="900" height="500" viewBox="0 0 900 500">
<rect width="100%" height="100%" fill="#ffffff"/>
<style>text{font-family:Arial,"Microsoft YaHei",sans-serif;fill:#222}.axis{stroke:#444;stroke-width:1}.grid{stroke:#ddd;stroke-width:1}.small{font-size:12px}.label{font-size:13px}.title{font-size:20px;font-weight:600}</style>
<text x="450.0" y="32" text-anchor="middle" class="title">Risk color stratification on proxy-reference alignment</text>
<text x="18" y="242.5" text-anchor="middle" transform="rotate(-90 18 242.5)" class="label">Rate</text>
<line x1="85" y1="410.0" x2="870" y2="410.0" class="grid"/>
<text x="77" y="414.0" text-anchor="end" class="small">0.00</text>
<line x1="85" y1="343.0" x2="870" y2="343.0" class="grid"/>
<text x="77" y="347.0" text-anchor="end" class="small">0.16</text>
<line x1="85" y1="276.0" x2="870" y2="276.0" class="grid"/>
<text x="77" y="280.0" text-anchor="end" class="small">0.32</text>
<line x1="85" y1="209.0" x2="870" y2="209.0" class="grid"/>
<text x="77" y="213.0" text-anchor="end" class="small">0.48</text>
<line x1="85" y1="142.0" x2="870" y2="142.0" class="grid"/>
<text x="77" y="146.0" text-anchor="end" class="small">0.64</text>
<line x1="85" y1="75.0" x2="870" y2="75.0" class="grid"/>
<text x="77" y="79.0" text-anchor="end" class="small">0.79</text>
<line x1="85" y1="75" x2="85" y2="410" class="axis"/>
<line x1="85" y1="410" x2="870" y2="410" class="axis"/>
<rect x="170.8" y="396.2" width="44.0" height="13.8" fill="#E45756" rx="2"/>
<text x="192.8" y="392.2" text-anchor="middle" class="small">0.03</text>
<rect x="216.8" y="118.7" width="44.0" height="291.3" fill="#4C78A8" rx="2"/>
<text x="238.8" y="114.7" text-anchor="middle" class="small">0.69</text>
<text x="215.8" y="434" text-anchor="middle" class="label">green</text>
<rect x="432.5" y="328.6" width="44.0" height="81.4" fill="#E45756" rx="2"/>
<text x="454.5" y="324.6" text-anchor="middle" class="small">0.19</text>
<rect x="478.5" y="324.8" width="44.0" height="85.2" fill="#4C78A8" rx="2"/>
<text x="500.5" y="320.8" text-anchor="middle" class="small">0.20</text>
<text x="477.5" y="434" text-anchor="middle" class="label">yellow</text>
<rect x="694.2" y="198.2" width="44.0" height="211.8" fill="#E45756" rx="2"/>
<text x="716.2" y="194.2" text-anchor="middle" class="small">0.50</text>
<rect x="740.2" y="365.0" width="44.0" height="45.0" fill="#4C78A8" rx="2"/>
<text x="762.2" y="361.0" text-anchor="middle" class="small">0.11</text>
<text x="739.2" y="434" text-anchor="middle" class="label">red</text>
<rect x="85" y="47" width="14" height="14" fill="#E45756" rx="2"/>
<text x="105" y="59" class="small">Detectable error rate</text>
<rect x="252" y="47" width="14" height="14" fill="#4C78A8" rx="2"/>
<text x="272" y="59" class="small">Character share</text>
</svg>
