<svg xmlns="http://www.w3.org/2000/svg" width="1600" height="560" viewBox="0 0 1600 560">
<rect width="100%" height="100%" fill="#ffffff"/>
<style>text{font-family:Arial,"Microsoft YaHei",sans-serif;fill:#222}.axis{stroke:#444;stroke-width:1}.grid{stroke:#ddd;stroke-width:1}.small{font-size:12px}.label{font-size:13px}.title{font-size:20px;font-weight:600}</style>
<text x="800.0" y="32" text-anchor="middle" class="title">Acoustic n-best availability by case</text>
<text x="18" y="255.0" text-anchor="middle" transform="rotate(-90 18 255.0)" class="label">Mean unique beams per ASR window</text>
<line x1="85" y1="435.0" x2="1570" y2="435.0" class="grid"/>
<text x="77" y="439.0" text-anchor="end" class="small">0.00</text>
<line x1="85" y1="363.0" x2="1570" y2="363.0" class="grid"/>
<text x="77" y="367.0" text-anchor="end" class="small">1.00</text>
<line x1="85" y1="291.0" x2="1570" y2="291.0" class="grid"/>
<text x="77" y="295.0" text-anchor="end" class="small">2.00</text>
<line x1="85" y1="219.0" x2="1570" y2="219.0" class="grid"/>
<text x="77" y="223.0" text-anchor="end" class="small">3.00</text>
<line x1="85" y1="147.0" x2="1570" y2="147.0" class="grid"/>
<text x="77" y="151.0" text-anchor="end" class="small">4.00</text>
<line x1="85" y1="75.0" x2="1570" y2="75.0" class="grid"/>
<text x="77" y="79.0" text-anchor="end" class="small">5.00</text>
<line x1="85" y1="75" x2="85" y2="435" class="axis"/>
<line x1="85" y1="435" x2="1570" y2="435" class="axis"/>
<rect x="91.2" y="106.1" width="24.7" height="328.9" fill="#B279A2" rx="2"/>
<text x="103.6" y="459.0" text-anchor="start" transform="rotate(45 103.6 459.0)" class="label">0002</text>
<rect x="128.3" y="114.1" width="24.7" height="320.9" fill="#B279A2" rx="2"/>
<text x="140.7" y="459.0" text-anchor="start" transform="rotate(45 140.7 459.0)" class="label">0003</text>
<rect x="165.4" y="117.2" width="24.7" height="317.8" fill="#B279A2" rx="2"/>
<text x="177.8" y="459.0" text-anchor="start" transform="rotate(45 177.8 459.0)" class="label">0005</text>
<rect x="202.6" y="83.8" width="24.7" height="351.2" fill="#B279A2" rx="2"/>
<text x="214.9" y="459.0" text-anchor="start" transform="rotate(45 214.9 459.0)" class="label">0006</text>
<rect x="239.7" y="107.3" width="24.7" height="327.7" fill="#B279A2" rx="2"/>
<text x="252.1" y="459.0" text-anchor="start" transform="rotate(45 252.1 459.0)" class="label">0008</text>
<rect x="276.8" y="94.2" width="24.7" height="340.8" fill="#B279A2" rx="2"/>
<text x="289.2" y="459.0" text-anchor="start" transform="rotate(45 289.2 459.0)" class="label">0010</text>
<rect x="313.9" y="111.0" width="24.7" height="324.0" fill="#B279A2" rx="2"/>
<text x="326.3" y="459.0" text-anchor="start" transform="rotate(45 326.3 459.0)" class="label">0012</text>
<rect x="351.1" y="85.3" width="24.7" height="349.7" fill="#B279A2" rx="2"/>
<text x="363.4" y="459.0" text-anchor="start" transform="rotate(45 363.4 459.0)" class="label">0015</text>
<rect x="388.2" y="101.5" width="24.7" height="333.5" fill="#B279A2" rx="2"/>
<text x="400.6" y="459.0" text-anchor="start" transform="rotate(45 400.6 459.0)" class="label">0021</text>
<rect x="425.3" y="81.5" width="24.7" height="353.5" fill="#B279A2" rx="2"/>
<text x="437.7" y="459.0" text-anchor="start" transform="rotate(45 437.7 459.0)" class="label">0022</text>
<rect x="462.4" y="89.6" width="24.7" height="345.4" fill="#B279A2" rx="2"/>
<text x="474.8" y="459.0" text-anchor="start" transform="rotate(45 474.8 459.0)" class="label">0024</text>
<rect x="499.6" y="136.7" width="24.7" height="298.3" fill="#B279A2" rx="2"/>
<text x="511.9" y="459.0" text-anchor="start" transform="rotate(45 511.9 459.0)" class="label">0025</text>
<rect x="536.7" y="100.6" width="24.7" height="334.4" fill="#B279A2" rx="2"/>
<text x="549.1" y="459.0" text-anchor="start" transform="rotate(45 549.1 459.0)" class="label">0029</text>
<rect x="573.8" y="114.3" width="24.7" height="320.7" fill="#B279A2" rx="2"/>
<text x="586.2" y="459.0" text-anchor="start" transform="rotate(45 586.2 459.0)" class="label">0033</text>
<rect x="610.9" y="88.8" width="24.7" height="346.2" fill="#B279A2" rx="2"/>
<text x="623.3" y="459.0" text-anchor="start" transform="rotate(45 623.3 459.0)" class="label">0034</text>
<rect x="648.1" y="105.6" width="24.7" height="329.4" fill="#B279A2" rx="2"/>
<text x="660.4" y="459.0" text-anchor="start" transform="rotate(45 660.4 459.0)" class="label">0038</text>
<rect x="685.2" y="96.0" width="24.7" height="339.0" fill="#B279A2" rx="2"/>
<text x="697.6" y="459.0" text-anchor="start" transform="rotate(45 697.6 459.0)" class="label">0039</text>
<rect x="722.3" y="113.8" width="24.7" height="321.2" fill="#B279A2" rx="2"/>
<text x="734.7" y="459.0" text-anchor="start" transform="rotate(45 734.7 459.0)" class="label">0040</text>
<rect x="759.4" y="144.2" width="24.7" height="290.8" fill="#B279A2" rx="2"/>
<text x="771.8" y="459.0" text-anchor="start" transform="rotate(45 771.8 459.0)" class="label">0043</text>
<rect x="796.6" y="119.3" width="24.7" height="315.7" fill="#B279A2" rx="2"/>
<text x="808.9" y="459.0" text-anchor="start" transform="rotate(45 808.9 459.0)" class="label">0045</text>
<rect x="833.7" y="83.0" width="24.7" height="352.0" fill="#B279A2" rx="2"/>
<text x="846.1" y="459.0" text-anchor="start" transform="rotate(45 846.1 459.0)" class="label">0046</text>
<rect x="870.8" y="97.5" width="24.7" height="337.5" fill="#B279A2" rx="2"/>
<text x="883.2" y="459.0" text-anchor="start" transform="rotate(45 883.2 459.0)" class="label">0051</text>
<rect x="907.9" y="100.7" width="24.7" height="334.3" fill="#B279A2" rx="2"/>
<text x="920.3" y="459.0" text-anchor="start" transform="rotate(45 920.3 459.0)" class="label">0054</text>
<rect x="945.1" y="102.7" width="24.7" height="332.3" fill="#B279A2" rx="2"/>
<text x="957.4" y="459.0" text-anchor="start" transform="rotate(45 957.4 459.0)" class="label">0056</text>
<rect x="982.2" y="101.2" width="24.7" height="333.8" fill="#B279A2" rx="2"/>
<text x="994.6" y="459.0" text-anchor="start" transform="rotate(45 994.6 459.0)" class="label">0057</text>
<rect x="1019.3" y="120.5" width="24.7" height="314.5" fill="#B279A2" rx="2"/>
<text x="1031.7" y="459.0" text-anchor="start" transform="rotate(45 1031.7 459.0)" class="label">0058</text>
<rect x="1056.4" y="116.1" width="24.7" height="318.9" fill="#B279A2" rx="2"/>
<text x="1068.8" y="459.0" text-anchor="start" transform="rotate(45 1068.8 459.0)" class="label">0059</text>
<rect x="1093.6" y="105.9" width="24.7" height="329.1" fill="#B279A2" rx="2"/>
<text x="1105.9" y="459.0" text-anchor="start" transform="rotate(45 1105.9 459.0)" class="label">0062</text>
<rect x="1130.7" y="88.1" width="24.7" height="346.9" fill="#B279A2" rx="2"/>
<text x="1143.1" y="459.0" text-anchor="start" transform="rotate(45 1143.1 459.0)" class="label">0066</text>
<rect x="1167.8" y="125.4" width="24.7" height="309.6" fill="#B279A2" rx="2"/>
<text x="1180.2" y="459.0" text-anchor="start" transform="rotate(45 1180.2 459.0)" class="label">0068</text>
<rect x="1204.9" y="134.5" width="24.7" height="300.5" fill="#B279A2" rx="2"/>
<text x="1217.3" y="459.0" text-anchor="start" transform="rotate(45 1217.3 459.0)" class="label">0076</text>
<rect x="1242.1" y="105.0" width="24.7" height="330.0" fill="#B279A2" rx="2"/>
<text x="1254.4" y="459.0" text-anchor="start" transform="rotate(45 1254.4 459.0)" class="label">0077</text>
<rect x="1279.2" y="111.0" width="24.7" height="324.0" fill="#B279A2" rx="2"/>
<text x="1291.6" y="459.0" text-anchor="start" transform="rotate(45 1291.6 459.0)" class="label">0079</text>
<rect x="1316.3" y="91.6" width="24.7" height="343.4" fill="#B279A2" rx="2"/>
<text x="1328.7" y="459.0" text-anchor="start" transform="rotate(45 1328.7 459.0)" class="label">0080</text>
<rect x="1353.4" y="85.3" width="24.7" height="349.7" fill="#B279A2" rx="2"/>
<text x="1365.8" y="459.0" text-anchor="start" transform="rotate(45 1365.8 459.0)" class="label">0081</text>
<rect x="1390.6" y="93.9" width="24.7" height="341.1" fill="#B279A2" rx="2"/>
<text x="1402.9" y="459.0" text-anchor="start" transform="rotate(45 1402.9 459.0)" class="label">0087</text>
<rect x="1427.7" y="128.1" width="24.7" height="306.9" fill="#B279A2" rx="2"/>
<text x="1440.1" y="459.0" text-anchor="start" transform="rotate(45 1440.1 459.0)" class="label">0093</text>
<rect x="1464.8" y="99.8" width="24.7" height="335.2" fill="#B279A2" rx="2"/>
<text x="1477.2" y="459.0" text-anchor="start" transform="rotate(45 1477.2 459.0)" class="label">0100</text>
<rect x="1501.9" y="117.4" width="24.7" height="317.6" fill="#B279A2" rx="2"/>
<text x="1514.3" y="459.0" text-anchor="start" transform="rotate(45 1514.3 459.0)" class="label">0104</text>
<rect x="1539.1" y="115.5" width="24.7" height="319.5" fill="#B279A2" rx="2"/>
<text x="1551.4" y="459.0" text-anchor="start" transform="rotate(45 1551.4 459.0)" class="label">0106</text>
<rect x="85" y="47" width="14" height="14" fill="#B279A2" rx="2"/>
<text x="105" y="59" class="small">mean beams/window</text>
</svg>
