<svg xmlns="http://www.w3.org/2000/svg" width="1600" height="560" viewBox="0 0 1600 560">
<rect width="100%" height="100%" fill="#ffffff"/>
<style>text{font-family:Arial,"Microsoft YaHei",sans-serif;fill:#222}.axis{stroke:#444;stroke-width:1}.grid{stroke:#ddd;stroke-width:1}.small{font-size:12px}.label{font-size:13px}.title{font-size:20px;font-weight:600}</style>
<text x="800.0" y="32" text-anchor="middle" class="title">Per-case ASR confidence risk composition</text>
<text x="18" y="255.0" text-anchor="middle" transform="rotate(-90 18 255.0)" class="label">Share of ASR review units</text>
<line x1="85" y1="435.0" x2="1570" y2="435.0" class="grid"/>
<text x="77" y="439.0" text-anchor="end" class="small">0.0%</text>
<line x1="85" y1="363.0" x2="1570" y2="363.0" class="grid"/>
<text x="77" y="367.0" text-anchor="end" class="small">20.0%</text>
<line x1="85" y1="291.0" x2="1570" y2="291.0" class="grid"/>
<text x="77" y="295.0" text-anchor="end" class="small">40.0%</text>
<line x1="85" y1="219.0" x2="1570" y2="219.0" class="grid"/>
<text x="77" y="223.0" text-anchor="end" class="small">60.0%</text>
<line x1="85" y1="147.0" x2="1570" y2="147.0" class="grid"/>
<text x="77" y="151.0" text-anchor="end" class="small">80.0%</text>
<line x1="85" y1="75.0" x2="1570" y2="75.0" class="grid"/>
<text x="77" y="79.0" text-anchor="end" class="small">100.0%</text>
<line x1="85" y1="75" x2="85" y2="435" class="axis"/>
<line x1="85" y1="435" x2="1570" y2="435" class="axis"/>
<rect x="90.2" y="435.0" width="26.7" height="0.0" fill="#2E8B57"/>
<rect x="90.2" y="435.0" width="26.7" height="0.0" fill="#E3B341"/>
<rect x="90.2" y="435.0" width="26.7" height="0.0" fill="#D94F4F"/>
<text x="103.6" y="459.0" text-anchor="start" transform="rotate(45 103.6 459.0)" class="small">0002</text>
<rect x="127.3" y="435.0" width="26.7" height="0.0" fill="#2E8B57"/>
<rect x="127.3" y="435.0" width="26.7" height="0.0" fill="#E3B341"/>
<rect x="127.3" y="435.0" width="26.7" height="0.0" fill="#D94F4F"/>
<text x="140.7" y="459.0" text-anchor="start" transform="rotate(45 140.7 459.0)" class="small">0003</text>
<rect x="164.4" y="435.0" width="26.7" height="0.0" fill="#2E8B57"/>
<rect x="164.4" y="435.0" width="26.7" height="0.0" fill="#E3B341"/>
<rect x="164.4" y="435.0" width="26.7" height="0.0" fill="#D94F4F"/>
<text x="177.8" y="459.0" text-anchor="start" transform="rotate(45 177.8 459.0)" class="small">0005</text>
<rect x="201.6" y="435.0" width="26.7" height="0.0" fill="#2E8B57"/>
<rect x="201.6" y="435.0" width="26.7" height="0.0" fill="#E3B341"/>
<rect x="201.6" y="435.0" width="26.7" height="0.0" fill="#D94F4F"/>
<text x="214.9" y="459.0" text-anchor="start" transform="rotate(45 214.9 459.0)" class="small">0006</text>
<rect x="238.7" y="192.8" width="26.7" height="242.2" fill="#2E8B57"/>
<rect x="238.7" y="105.4" width="26.7" height="87.4" fill="#E3B341"/>
<rect x="238.7" y="75.0" width="26.7" height="30.4" fill="#D94F4F"/>
<text x="252.1" y="459.0" text-anchor="start" transform="rotate(45 252.1 459.0)" class="small">0008</text>
<rect x="275.8" y="435.0" width="26.7" height="0.0" fill="#2E8B57"/>
<rect x="275.8" y="435.0" width="26.7" height="0.0" fill="#E3B341"/>
<rect x="275.8" y="435.0" width="26.7" height="0.0" fill="#D94F4F"/>
<text x="289.2" y="459.0" text-anchor="start" transform="rotate(45 289.2 459.0)" class="small">0010</text>
<rect x="312.9" y="435.0" width="26.7" height="0.0" fill="#2E8B57"/>
<rect x="312.9" y="435.0" width="26.7" height="0.0" fill="#E3B341"/>
<rect x="312.9" y="435.0" width="26.7" height="0.0" fill="#D94F4F"/>
<text x="326.3" y="459.0" text-anchor="start" transform="rotate(45 326.3 459.0)" class="small">0012</text>
<rect x="350.1" y="435.0" width="26.7" height="0.0" fill="#2E8B57"/>
<rect x="350.1" y="435.0" width="26.7" height="0.0" fill="#E3B341"/>
<rect x="350.1" y="435.0" width="26.7" height="0.0" fill="#D94F4F"/>
<text x="363.4" y="459.0" text-anchor="start" transform="rotate(45 363.4 459.0)" class="small">0015</text>
<rect x="387.2" y="180.7" width="26.7" height="254.3" fill="#2E8B57"/>
<rect x="387.2" y="114.7" width="26.7" height="66.0" fill="#E3B341"/>
<rect x="387.2" y="75.0" width="26.7" height="39.7" fill="#D94F4F"/>
<text x="400.6" y="459.0" text-anchor="start" transform="rotate(45 400.6 459.0)" class="small">0021</text>
<rect x="424.3" y="435.0" width="26.7" height="0.0" fill="#2E8B57"/>
<rect x="424.3" y="435.0" width="26.7" height="0.0" fill="#E3B341"/>
<rect x="424.3" y="435.0" width="26.7" height="0.0" fill="#D94F4F"/>
<text x="437.7" y="459.0" text-anchor="start" transform="rotate(45 437.7 459.0)" class="small">0022</text>
<rect x="461.4" y="435.0" width="26.7" height="0.0" fill="#2E8B57"/>
<rect x="461.4" y="435.0" width="26.7" height="0.0" fill="#E3B341"/>
<rect x="461.4" y="435.0" width="26.7" height="0.0" fill="#D94F4F"/>
<text x="474.8" y="459.0" text-anchor="start" transform="rotate(45 474.8 459.0)" class="small">0024</text>
<rect x="498.6" y="435.0" width="26.7" height="0.0" fill="#2E8B57"/>
<rect x="498.6" y="435.0" width="26.7" height="0.0" fill="#E3B341"/>
<rect x="498.6" y="435.0" width="26.7" height="0.0" fill="#D94F4F"/>
<text x="511.9" y="459.0" text-anchor="start" transform="rotate(45 511.9 459.0)" class="small">0025</text>
<rect x="535.7" y="435.0" width="26.7" height="0.0" fill="#2E8B57"/>
<rect x="535.7" y="435.0" width="26.7" height="0.0" fill="#E3B341"/>
<rect x="535.7" y="435.0" width="26.7" height="0.0" fill="#D94F4F"/>
<text x="549.1" y="459.0" text-anchor="start" transform="rotate(45 549.1 459.0)" class="small">0029</text>
<rect x="572.8" y="435.0" width="26.7" height="0.0" fill="#2E8B57"/>
<rect x="572.8" y="435.0" width="26.7" height="0.0" fill="#E3B341"/>
<rect x="572.8" y="435.0" width="26.7" height="0.0" fill="#D94F4F"/>
<text x="586.2" y="459.0" text-anchor="start" transform="rotate(45 586.2 459.0)" class="small">0033</text>
<rect x="609.9" y="435.0" width="26.7" height="0.0" fill="#2E8B57"/>
<rect x="609.9" y="435.0" width="26.7" height="0.0" fill="#E3B341"/>
<rect x="609.9" y="435.0" width="26.7" height="0.0" fill="#D94F4F"/>
<text x="623.3" y="459.0" text-anchor="start" transform="rotate(45 623.3 459.0)" class="small">0034</text>
<rect x="647.1" y="435.0" width="26.7" height="0.0" fill="#2E8B57"/>
<rect x="647.1" y="435.0" width="26.7" height="0.0" fill="#E3B341"/>
<rect x="647.1" y="435.0" width="26.7" height="0.0" fill="#D94F4F"/>
<text x="660.4" y="459.0" text-anchor="start" transform="rotate(45 660.4 459.0)" class="small">0038</text>
<rect x="684.2" y="435.0" width="26.7" height="0.0" fill="#2E8B57"/>
<rect x="684.2" y="435.0" width="26.7" height="0.0" fill="#E3B341"/>
<rect x="684.2" y="435.0" width="26.7" height="0.0" fill="#D94F4F"/>
<text x="697.6" y="459.0" text-anchor="start" transform="rotate(45 697.6 459.0)" class="small">0039</text>
<rect x="721.3" y="217.1" width="26.7" height="217.9" fill="#2E8B57"/>
<rect x="721.3" y="121.6" width="26.7" height="95.5" fill="#E3B341"/>
<rect x="721.3" y="75.0" width="26.7" height="46.6" fill="#D94F4F"/>
<text x="734.7" y="459.0" text-anchor="start" transform="rotate(45 734.7 459.0)" class="small">0040</text>
<rect x="758.4" y="435.0" width="26.7" height="0.0" fill="#2E8B57"/>
<rect x="758.4" y="435.0" width="26.7" height="0.0" fill="#E3B341"/>
<rect x="758.4" y="435.0" width="26.7" height="0.0" fill="#D94F4F"/>
<text x="771.8" y="459.0" text-anchor="start" transform="rotate(45 771.8 459.0)" class="small">0043</text>
<rect x="795.6" y="435.0" width="26.7" height="0.0" fill="#2E8B57"/>
<rect x="795.6" y="435.0" width="26.7" height="0.0" fill="#E3B341"/>
<rect x="795.6" y="435.0" width="26.7" height="0.0" fill="#D94F4F"/>
<text x="808.9" y="459.0" text-anchor="start" transform="rotate(45 808.9 459.0)" class="small">0045</text>
<rect x="832.7" y="435.0" width="26.7" height="0.0" fill="#2E8B57"/>
<rect x="832.7" y="435.0" width="26.7" height="0.0" fill="#E3B341"/>
<rect x="832.7" y="435.0" width="26.7" height="0.0" fill="#D94F4F"/>
<text x="846.1" y="459.0" text-anchor="start" transform="rotate(45 846.1 459.0)" class="small">0046</text>
<rect x="869.8" y="435.0" width="26.7" height="0.0" fill="#2E8B57"/>
<rect x="869.8" y="435.0" width="26.7" height="0.0" fill="#E3B341"/>
<rect x="869.8" y="435.0" width="26.7" height="0.0" fill="#D94F4F"/>
<text x="883.2" y="459.0" text-anchor="start" transform="rotate(45 883.2 459.0)" class="small">0051</text>
<rect x="906.9" y="435.0" width="26.7" height="0.0" fill="#2E8B57"/>
<rect x="906.9" y="435.0" width="26.7" height="0.0" fill="#E3B341"/>
<rect x="906.9" y="435.0" width="26.7" height="0.0" fill="#D94F4F"/>
<text x="920.3" y="459.0" text-anchor="start" transform="rotate(45 920.3 459.0)" class="small">0054</text>
<rect x="944.1" y="435.0" width="26.7" height="0.0" fill="#2E8B57"/>
<rect x="944.1" y="435.0" width="26.7" height="0.0" fill="#E3B341"/>
<rect x="944.1" y="435.0" width="26.7" height="0.0" fill="#D94F4F"/>
<text x="957.4" y="459.0" text-anchor="start" transform="rotate(45 957.4 459.0)" class="small">0056</text>
<rect x="981.2" y="159.1" width="26.7" height="275.9" fill="#2E8B57"/>
<rect x="981.2" y="89.6" width="26.7" height="69.4" fill="#E3B341"/>
<rect x="981.2" y="75.0" width="26.7" height="14.6" fill="#D94F4F"/>
<text x="994.6" y="459.0" text-anchor="start" transform="rotate(45 994.6 459.0)" class="small">0057</text>
<rect x="1018.3" y="435.0" width="26.7" height="0.0" fill="#2E8B57"/>
<rect x="1018.3" y="435.0" width="26.7" height="0.0" fill="#E3B341"/>
<rect x="1018.3" y="435.0" width="26.7" height="0.0" fill="#D94F4F"/>
<text x="1031.7" y="459.0" text-anchor="start" transform="rotate(45 1031.7 459.0)" class="small">0058</text>
<rect x="1055.4" y="435.0" width="26.7" height="0.0" fill="#2E8B57"/>
<rect x="1055.4" y="435.0" width="26.7" height="0.0" fill="#E3B341"/>
<rect x="1055.4" y="435.0" width="26.7" height="0.0" fill="#D94F4F"/>
<text x="1068.8" y="459.0" text-anchor="start" transform="rotate(45 1068.8 459.0)" class="small">0059</text>
<rect x="1092.6" y="435.0" width="26.7" height="0.0" fill="#2E8B57"/>
<rect x="1092.6" y="435.0" width="26.7" height="0.0" fill="#E3B341"/>
<rect x="1092.6" y="435.0" width="26.7" height="0.0" fill="#D94F4F"/>
<text x="1105.9" y="459.0" text-anchor="start" transform="rotate(45 1105.9 459.0)" class="small">0062</text>
<rect x="1129.7" y="435.0" width="26.7" height="0.0" fill="#2E8B57"/>
<rect x="1129.7" y="435.0" width="26.7" height="0.0" fill="#E3B341"/>
<rect x="1129.7" y="435.0" width="26.7" height="0.0" fill="#D94F4F"/>
<text x="1143.1" y="459.0" text-anchor="start" transform="rotate(45 1143.1 459.0)" class="small">0066</text>
<rect x="1166.8" y="131.5" width="26.7" height="303.5" fill="#2E8B57"/>
<rect x="1166.8" y="94.8" width="26.7" height="36.7" fill="#E3B341"/>
<rect x="1166.8" y="75.0" width="26.7" height="19.8" fill="#D94F4F"/>
<text x="1180.2" y="459.0" text-anchor="start" transform="rotate(45 1180.2 459.0)" class="small">0068</text>
<rect x="1203.9" y="435.0" width="26.7" height="0.0" fill="#2E8B57"/>
<rect x="1203.9" y="435.0" width="26.7" height="0.0" fill="#E3B341"/>
<rect x="1203.9" y="435.0" width="26.7" height="0.0" fill="#D94F4F"/>
<text x="1217.3" y="459.0" text-anchor="start" transform="rotate(45 1217.3 459.0)" class="small">0076</text>
<rect x="1241.1" y="435.0" width="26.7" height="0.0" fill="#2E8B57"/>
<rect x="1241.1" y="435.0" width="26.7" height="0.0" fill="#E3B341"/>
<rect x="1241.1" y="435.0" width="26.7" height="0.0" fill="#D94F4F"/>
<text x="1254.4" y="459.0" text-anchor="start" transform="rotate(45 1254.4 459.0)" class="small">0077</text>
<rect x="1278.2" y="435.0" width="26.7" height="0.0" fill="#2E8B57"/>
<rect x="1278.2" y="435.0" width="26.7" height="0.0" fill="#E3B341"/>
<rect x="1278.2" y="435.0" width="26.7" height="0.0" fill="#D94F4F"/>
<text x="1291.6" y="459.0" text-anchor="start" transform="rotate(45 1291.6 459.0)" class="small">0079</text>
<rect x="1315.3" y="435.0" width="26.7" height="0.0" fill="#2E8B57"/>
<rect x="1315.3" y="435.0" width="26.7" height="0.0" fill="#E3B341"/>
<rect x="1315.3" y="435.0" width="26.7" height="0.0" fill="#D94F4F"/>
<text x="1328.7" y="459.0" text-anchor="start" transform="rotate(45 1328.7 459.0)" class="small">0080</text>
<rect x="1352.4" y="435.0" width="26.7" height="0.0" fill="#2E8B57"/>
<rect x="1352.4" y="435.0" width="26.7" height="0.0" fill="#E3B341"/>
<rect x="1352.4" y="435.0" width="26.7" height="0.0" fill="#D94F4F"/>
<text x="1365.8" y="459.0" text-anchor="start" transform="rotate(45 1365.8 459.0)" class="small">0081</text>
<rect x="1389.6" y="435.0" width="26.7" height="0.0" fill="#2E8B57"/>
<rect x="1389.6" y="435.0" width="26.7" height="0.0" fill="#E3B341"/>
<rect x="1389.6" y="435.0" width="26.7" height="0.0" fill="#D94F4F"/>
<text x="1402.9" y="459.0" text-anchor="start" transform="rotate(45 1402.9 459.0)" class="small">0087</text>
<rect x="1426.7" y="435.0" width="26.7" height="0.0" fill="#2E8B57"/>
<rect x="1426.7" y="435.0" width="26.7" height="0.0" fill="#E3B341"/>
<rect x="1426.7" y="435.0" width="26.7" height="0.0" fill="#D94F4F"/>
<text x="1440.1" y="459.0" text-anchor="start" transform="rotate(45 1440.1 459.0)" class="small">0093</text>
<rect x="1463.8" y="435.0" width="26.7" height="0.0" fill="#2E8B57"/>
<rect x="1463.8" y="435.0" width="26.7" height="0.0" fill="#E3B341"/>
<rect x="1463.8" y="435.0" width="26.7" height="0.0" fill="#D94F4F"/>
<text x="1477.2" y="459.0" text-anchor="start" transform="rotate(45 1477.2 459.0)" class="small">0100</text>
<rect x="1500.9" y="435.0" width="26.7" height="0.0" fill="#2E8B57"/>
<rect x="1500.9" y="435.0" width="26.7" height="0.0" fill="#E3B341"/>
<rect x="1500.9" y="435.0" width="26.7" height="0.0" fill="#D94F4F"/>
<text x="1514.3" y="459.0" text-anchor="start" transform="rotate(45 1514.3 459.0)" class="small">0104</text>
<rect x="1538.1" y="435.0" width="26.7" height="0.0" fill="#2E8B57"/>
<rect x="1538.1" y="435.0" width="26.7" height="0.0" fill="#E3B341"/>
<rect x="1538.1" y="435.0" width="26.7" height="0.0" fill="#D94F4F"/>
<text x="1551.4" y="459.0" text-anchor="start" transform="rotate(45 1551.4 459.0)" class="small">0106</text>
<rect x="85" y="47" width="14" height="14" fill="#2E8B57" rx="2"/>
<text x="105" y="59" class="small">green</text>
<rect x="205" y="47" width="14" height="14" fill="#E3B341" rx="2"/>
<text x="225" y="59" class="small">yellow</text>
<rect x="325" y="47" width="14" height="14" fill="#D94F4F" rx="2"/>
<text x="345" y="59" class="small">red</text>
</svg>
