<svg xmlns="http://www.w3.org/2000/svg" width="1600" height="560" viewBox="0 0 1600 560">
<rect width="100%" height="100%" fill="#ffffff"/>
<style>text{font-family:Arial,"Microsoft YaHei",sans-serif;fill:#222}.axis{stroke:#444;stroke-width:1}.grid{stroke:#ddd;stroke-width:1}.small{font-size:12px}.label{font-size:13px}.title{font-size:20px;font-weight:600}</style>
<text x="800.0" y="32" text-anchor="middle" class="title">Per-case ASR confidence risk composition</text>
<text x="18" y="255.0" text-anchor="middle" transform="rotate(-90 18 255.0)" class="label">Share of ASR review units</text>
<line x1="85" y1="435.0" x2="1570" y2="435.0" class="grid"/>
<text x="77" y="439.0" text-anchor="end" class="small">0.0%</text>
<line x1="85" y1="363.0" x2="1570" y2="363.0" class="grid"/>
<text x="77" y="367.0" text-anchor="end" class="small">20.0%</text>
<line x1="85" y1="291.0" x2="1570" y2="291.0" class="grid"/>
<text x="77" y="295.0" text-anchor="end" class="small">40.0%</text>
<line x1="85" y1="219.0" x2="1570" y2="219.0" class="grid"/>
<text x="77" y="223.0" text-anchor="end" class="small">60.0%</text>
<line x1="85" y1="147.0" x2="1570" y2="147.0" class="grid"/>
<text x="77" y="151.0" text-anchor="end" class="small">80.0%</text>
<line x1="85" y1="75.0" x2="1570" y2="75.0" class="grid"/>
<text x="77" y="79.0" text-anchor="end" class="small">100.0%</text>
<line x1="85" y1="75" x2="85" y2="435" class="axis"/>
<line x1="85" y1="435" x2="1570" y2="435" class="axis"/>
<rect x="90.2" y="214.3" width="26.7" height="220.7" fill="#2E8B57"/>
<rect x="90.2" y="125.0" width="26.7" height="89.4" fill="#E3B341"/>
<rect x="90.2" y="75.0" width="26.7" height="50.0" fill="#D94F4F"/>
<text x="103.6" y="459.0" text-anchor="start" transform="rotate(45 103.6 459.0)" class="small">0002</text>
<rect x="127.3" y="130.6" width="26.7" height="304.4" fill="#2E8B57"/>
<rect x="127.3" y="83.3" width="26.7" height="47.3" fill="#E3B341"/>
<rect x="127.3" y="75.0" width="26.7" height="8.3" fill="#D94F4F"/>
<text x="140.7" y="459.0" text-anchor="start" transform="rotate(45 140.7 459.0)" class="small">0003</text>
<rect x="164.4" y="285.6" width="26.7" height="149.4" fill="#2E8B57"/>
<rect x="164.4" y="150.7" width="26.7" height="134.9" fill="#E3B341"/>
<rect x="164.4" y="75.0" width="26.7" height="75.7" fill="#D94F4F"/>
<text x="177.8" y="459.0" text-anchor="start" transform="rotate(45 177.8 459.0)" class="small">0005</text>
<rect x="201.6" y="156.7" width="26.7" height="278.3" fill="#2E8B57"/>
<rect x="201.6" y="99.6" width="26.7" height="57.1" fill="#E3B341"/>
<rect x="201.6" y="75.0" width="26.7" height="24.6" fill="#D94F4F"/>
<text x="214.9" y="459.0" text-anchor="start" transform="rotate(45 214.9 459.0)" class="small">0006</text>
<rect x="238.7" y="157.7" width="26.7" height="277.3" fill="#2E8B57"/>
<rect x="238.7" y="90.6" width="26.7" height="67.1" fill="#E3B341"/>
<rect x="238.7" y="75.0" width="26.7" height="15.6" fill="#D94F4F"/>
<text x="252.1" y="459.0" text-anchor="start" transform="rotate(45 252.1 459.0)" class="small">0008</text>
<rect x="275.8" y="119.4" width="26.7" height="315.6" fill="#2E8B57"/>
<rect x="275.8" y="82.9" width="26.7" height="36.5" fill="#E3B341"/>
<rect x="275.8" y="75.0" width="26.7" height="7.9" fill="#D94F4F"/>
<text x="289.2" y="459.0" text-anchor="start" transform="rotate(45 289.2 459.0)" class="small">0010</text>
<rect x="312.9" y="160.9" width="26.7" height="274.1" fill="#2E8B57"/>
<rect x="312.9" y="92.4" width="26.7" height="68.5" fill="#E3B341"/>
<rect x="312.9" y="75.0" width="26.7" height="17.4" fill="#D94F4F"/>
<text x="326.3" y="459.0" text-anchor="start" transform="rotate(45 326.3 459.0)" class="small">0012</text>
<rect x="350.1" y="112.9" width="26.7" height="322.1" fill="#2E8B57"/>
<rect x="350.1" y="83.1" width="26.7" height="29.8" fill="#E3B341"/>
<rect x="350.1" y="75.0" width="26.7" height="8.1" fill="#D94F4F"/>
<text x="363.4" y="459.0" text-anchor="start" transform="rotate(45 363.4 459.0)" class="small">0015</text>
<rect x="387.2" y="156.4" width="26.7" height="278.6" fill="#2E8B57"/>
<rect x="387.2" y="100.5" width="26.7" height="55.8" fill="#E3B341"/>
<rect x="387.2" y="75.0" width="26.7" height="25.5" fill="#D94F4F"/>
<text x="400.6" y="459.0" text-anchor="start" transform="rotate(45 400.6 459.0)" class="small">0021</text>
<rect x="424.3" y="164.6" width="26.7" height="270.4" fill="#2E8B57"/>
<rect x="424.3" y="96.5" width="26.7" height="68.2" fill="#E3B341"/>
<rect x="424.3" y="75.0" width="26.7" height="21.5" fill="#D94F4F"/>
<text x="437.7" y="459.0" text-anchor="start" transform="rotate(45 437.7 459.0)" class="small">0022</text>
<rect x="461.4" y="192.8" width="26.7" height="242.2" fill="#2E8B57"/>
<rect x="461.4" y="104.6" width="26.7" height="88.2" fill="#E3B341"/>
<rect x="461.4" y="75.0" width="26.7" height="29.6" fill="#D94F4F"/>
<text x="474.8" y="459.0" text-anchor="start" transform="rotate(45 474.8 459.0)" class="small">0024</text>
<rect x="498.6" y="194.1" width="26.7" height="240.9" fill="#2E8B57"/>
<rect x="498.6" y="103.9" width="26.7" height="90.2" fill="#E3B341"/>
<rect x="498.6" y="75.0" width="26.7" height="28.9" fill="#D94F4F"/>
<text x="511.9" y="459.0" text-anchor="start" transform="rotate(45 511.9 459.0)" class="small">0025</text>
<rect x="535.7" y="173.0" width="26.7" height="262.0" fill="#2E8B57"/>
<rect x="535.7" y="103.5" width="26.7" height="69.4" fill="#E3B341"/>
<rect x="535.7" y="75.0" width="26.7" height="28.5" fill="#D94F4F"/>
<text x="549.1" y="459.0" text-anchor="start" transform="rotate(45 549.1 459.0)" class="small">0029</text>
<rect x="572.8" y="188.0" width="26.7" height="247.0" fill="#2E8B57"/>
<rect x="572.8" y="114.3" width="26.7" height="73.7" fill="#E3B341"/>
<rect x="572.8" y="75.0" width="26.7" height="39.3" fill="#D94F4F"/>
<text x="586.2" y="459.0" text-anchor="start" transform="rotate(45 586.2 459.0)" class="small">0033</text>
<rect x="609.9" y="132.6" width="26.7" height="302.4" fill="#2E8B57"/>
<rect x="609.9" y="87.6" width="26.7" height="44.9" fill="#E3B341"/>
<rect x="609.9" y="75.0" width="26.7" height="12.6" fill="#D94F4F"/>
<text x="623.3" y="459.0" text-anchor="start" transform="rotate(45 623.3 459.0)" class="small">0034</text>
<rect x="647.1" y="189.8" width="26.7" height="245.2" fill="#2E8B57"/>
<rect x="647.1" y="108.3" width="26.7" height="81.5" fill="#E3B341"/>
<rect x="647.1" y="75.0" width="26.7" height="33.3" fill="#D94F4F"/>
<text x="660.4" y="459.0" text-anchor="start" transform="rotate(45 660.4 459.0)" class="small">0038</text>
<rect x="684.2" y="155.6" width="26.7" height="279.4" fill="#2E8B57"/>
<rect x="684.2" y="107.1" width="26.7" height="48.5" fill="#E3B341"/>
<rect x="684.2" y="75.0" width="26.7" height="32.1" fill="#D94F4F"/>
<text x="697.6" y="459.0" text-anchor="start" transform="rotate(45 697.6 459.0)" class="small">0039</text>
<rect x="721.3" y="183.4" width="26.7" height="251.6" fill="#2E8B57"/>
<rect x="721.3" y="102.0" width="26.7" height="81.4" fill="#E3B341"/>
<rect x="721.3" y="75.0" width="26.7" height="27.0" fill="#D94F4F"/>
<text x="734.7" y="459.0" text-anchor="start" transform="rotate(45 734.7 459.0)" class="small">0040</text>
<rect x="758.4" y="358.5" width="26.7" height="76.5" fill="#2E8B57"/>
<rect x="758.4" y="244.4" width="26.7" height="114.1" fill="#E3B341"/>
<rect x="758.4" y="75.0" width="26.7" height="169.4" fill="#D94F4F"/>
<text x="771.8" y="459.0" text-anchor="start" transform="rotate(45 771.8 459.0)" class="small">0043</text>
<rect x="795.6" y="273.9" width="26.7" height="161.1" fill="#2E8B57"/>
<rect x="795.6" y="172.4" width="26.7" height="101.5" fill="#E3B341"/>
<rect x="795.6" y="75.0" width="26.7" height="97.4" fill="#D94F4F"/>
<text x="808.9" y="459.0" text-anchor="start" transform="rotate(45 808.9 459.0)" class="small">0045</text>
<rect x="832.7" y="122.3" width="26.7" height="312.7" fill="#2E8B57"/>
<rect x="832.7" y="87.6" width="26.7" height="34.6" fill="#E3B341"/>
<rect x="832.7" y="75.0" width="26.7" height="12.6" fill="#D94F4F"/>
<text x="846.1" y="459.0" text-anchor="start" transform="rotate(45 846.1 459.0)" class="small">0046</text>
<rect x="869.8" y="177.6" width="26.7" height="257.4" fill="#2E8B57"/>
<rect x="869.8" y="101.0" width="26.7" height="76.6" fill="#E3B341"/>
<rect x="869.8" y="75.0" width="26.7" height="26.0" fill="#D94F4F"/>
<text x="883.2" y="459.0" text-anchor="start" transform="rotate(45 883.2 459.0)" class="small">0051</text>
<rect x="906.9" y="103.4" width="26.7" height="331.6" fill="#2E8B57"/>
<rect x="906.9" y="79.7" width="26.7" height="23.7" fill="#E3B341"/>
<rect x="906.9" y="75.0" width="26.7" height="4.7" fill="#D94F4F"/>
<text x="920.3" y="459.0" text-anchor="start" transform="rotate(45 920.3 459.0)" class="small">0054</text>
<rect x="944.1" y="177.9" width="26.7" height="257.1" fill="#2E8B57"/>
<rect x="944.1" y="98.8" width="26.7" height="79.1" fill="#E3B341"/>
<rect x="944.1" y="75.0" width="26.7" height="23.8" fill="#D94F4F"/>
<text x="957.4" y="459.0" text-anchor="start" transform="rotate(45 957.4 459.0)" class="small">0056</text>
<rect x="981.2" y="129.8" width="26.7" height="305.2" fill="#2E8B57"/>
<rect x="981.2" y="83.4" width="26.7" height="46.4" fill="#E3B341"/>
<rect x="981.2" y="75.0" width="26.7" height="8.4" fill="#D94F4F"/>
<text x="994.6" y="459.0" text-anchor="start" transform="rotate(45 994.6 459.0)" class="small">0057</text>
<rect x="1018.3" y="182.9" width="26.7" height="252.1" fill="#2E8B57"/>
<rect x="1018.3" y="105.0" width="26.7" height="78.0" fill="#E3B341"/>
<rect x="1018.3" y="75.0" width="26.7" height="30.0" fill="#D94F4F"/>
<text x="1031.7" y="459.0" text-anchor="start" transform="rotate(45 1031.7 459.0)" class="small">0058</text>
<rect x="1055.4" y="160.0" width="26.7" height="275.0" fill="#2E8B57"/>
<rect x="1055.4" y="105.2" width="26.7" height="54.7" fill="#E3B341"/>
<rect x="1055.4" y="75.0" width="26.7" height="30.2" fill="#D94F4F"/>
<text x="1068.8" y="459.0" text-anchor="start" transform="rotate(45 1068.8 459.0)" class="small">0059</text>
<rect x="1092.6" y="282.8" width="26.7" height="152.2" fill="#2E8B57"/>
<rect x="1092.6" y="166.6" width="26.7" height="116.2" fill="#E3B341"/>
<rect x="1092.6" y="75.0" width="26.7" height="91.6" fill="#D94F4F"/>
<text x="1105.9" y="459.0" text-anchor="start" transform="rotate(45 1105.9 459.0)" class="small">0062</text>
<rect x="1129.7" y="143.6" width="26.7" height="291.4" fill="#2E8B57"/>
<rect x="1129.7" y="89.5" width="26.7" height="54.1" fill="#E3B341"/>
<rect x="1129.7" y="75.0" width="26.7" height="14.5" fill="#D94F4F"/>
<text x="1143.1" y="459.0" text-anchor="start" transform="rotate(45 1143.1 459.0)" class="small">0066</text>
<rect x="1166.8" y="116.7" width="26.7" height="318.3" fill="#2E8B57"/>
<rect x="1166.8" y="86.9" width="26.7" height="29.8" fill="#E3B341"/>
<rect x="1166.8" y="75.0" width="26.7" height="11.9" fill="#D94F4F"/>
<text x="1180.2" y="459.0" text-anchor="start" transform="rotate(45 1180.2 459.0)" class="small">0068</text>
<rect x="1203.9" y="385.7" width="26.7" height="49.3" fill="#2E8B57"/>
<rect x="1203.9" y="277.4" width="26.7" height="108.3" fill="#E3B341"/>
<rect x="1203.9" y="75.0" width="26.7" height="202.4" fill="#D94F4F"/>
<text x="1217.3" y="459.0" text-anchor="start" transform="rotate(45 1217.3 459.0)" class="small">0076</text>
<rect x="1241.1" y="217.0" width="26.7" height="218.0" fill="#2E8B57"/>
<rect x="1241.1" y="118.6" width="26.7" height="98.3" fill="#E3B341"/>
<rect x="1241.1" y="75.0" width="26.7" height="43.6" fill="#D94F4F"/>
<text x="1254.4" y="459.0" text-anchor="start" transform="rotate(45 1254.4 459.0)" class="small">0077</text>
<rect x="1278.2" y="202.6" width="26.7" height="232.4" fill="#2E8B57"/>
<rect x="1278.2" y="134.5" width="26.7" height="68.1" fill="#E3B341"/>
<rect x="1278.2" y="75.0" width="26.7" height="59.5" fill="#D94F4F"/>
<text x="1291.6" y="459.0" text-anchor="start" transform="rotate(45 1291.6 459.0)" class="small">0079</text>
<rect x="1315.3" y="192.5" width="26.7" height="242.5" fill="#2E8B57"/>
<rect x="1315.3" y="118.2" width="26.7" height="74.3" fill="#E3B341"/>
<rect x="1315.3" y="75.0" width="26.7" height="43.2" fill="#D94F4F"/>
<text x="1328.7" y="459.0" text-anchor="start" transform="rotate(45 1328.7 459.0)" class="small">0080</text>
<rect x="1352.4" y="253.6" width="26.7" height="181.4" fill="#2E8B57"/>
<rect x="1352.4" y="131.2" width="26.7" height="122.5" fill="#E3B341"/>
<rect x="1352.4" y="75.0" width="26.7" height="56.2" fill="#D94F4F"/>
<text x="1365.8" y="459.0" text-anchor="start" transform="rotate(45 1365.8 459.0)" class="small">0081</text>
<rect x="1389.6" y="147.4" width="26.7" height="287.6" fill="#2E8B57"/>
<rect x="1389.6" y="91.0" width="26.7" height="56.4" fill="#E3B341"/>
<rect x="1389.6" y="75.0" width="26.7" height="16.0" fill="#D94F4F"/>
<text x="1402.9" y="459.0" text-anchor="start" transform="rotate(45 1402.9 459.0)" class="small">0087</text>
<rect x="1426.7" y="173.2" width="26.7" height="261.8" fill="#2E8B57"/>
<rect x="1426.7" y="107.0" width="26.7" height="66.2" fill="#E3B341"/>
<rect x="1426.7" y="75.0" width="26.7" height="32.0" fill="#D94F4F"/>
<text x="1440.1" y="459.0" text-anchor="start" transform="rotate(45 1440.1 459.0)" class="small">0093</text>
<rect x="1463.8" y="170.0" width="26.7" height="265.0" fill="#2E8B57"/>
<rect x="1463.8" y="107.4" width="26.7" height="62.6" fill="#E3B341"/>
<rect x="1463.8" y="75.0" width="26.7" height="32.4" fill="#D94F4F"/>
<text x="1477.2" y="459.0" text-anchor="start" transform="rotate(45 1477.2 459.0)" class="small">0100</text>
<rect x="1500.9" y="248.1" width="26.7" height="186.9" fill="#2E8B57"/>
<rect x="1500.9" y="171.8" width="26.7" height="76.3" fill="#E3B341"/>
<rect x="1500.9" y="75.0" width="26.7" height="96.8" fill="#D94F4F"/>
<text x="1514.3" y="459.0" text-anchor="start" transform="rotate(45 1514.3 459.0)" class="small">0104</text>
<rect x="1538.1" y="249.8" width="26.7" height="185.2" fill="#2E8B57"/>
<rect x="1538.1" y="134.3" width="26.7" height="115.5" fill="#E3B341"/>
<rect x="1538.1" y="75.0" width="26.7" height="59.3" fill="#D94F4F"/>
<text x="1551.4" y="459.0" text-anchor="start" transform="rotate(45 1551.4 459.0)" class="small">0106</text>
<rect x="85" y="47" width="14" height="14" fill="#2E8B57" rx="2"/>
<text x="105" y="59" class="small">green</text>
<rect x="205" y="47" width="14" height="14" fill="#E3B341" rx="2"/>
<text x="225" y="59" class="small">yellow</text>
<rect x="325" y="47" width="14" height="14" fill="#D94F4F" rx="2"/>
<text x="345" y="59" class="small">red</text>
</svg>
