<svg xmlns="http://www.w3.org/2000/svg" width="900" height="500" viewBox="0 0 900 500">
<rect width="100%" height="100%" fill="#ffffff"/>
<style>text{font-family:Arial,"Microsoft YaHei",sans-serif;fill:#222}.axis{stroke:#444;stroke-width:1}.grid{stroke:#ddd;stroke-width:1}.small{font-size:12px}.label{font-size:13px}.title{font-size:20px;font-weight:600}</style>
<text x="450.0" y="32" text-anchor="middle" class="title">Pipeline stage coverage</text>
<text x="18" y="242.5" text-anchor="middle" transform="rotate(-90 18 242.5)" class="label">Anonymous cases</text>
<line x1="85" y1="410.0" x2="870" y2="410.0" class="grid"/>
<text x="77" y="414.0" text-anchor="end" class="small">0.00</text>
<line x1="85" y1="343.0" x2="870" y2="343.0" class="grid"/>
<text x="77" y="347.0" text-anchor="end" class="small">8.00</text>
<line x1="85" y1="276.0" x2="870" y2="276.0" class="grid"/>
<text x="77" y="280.0" text-anchor="end" class="small">16.00</text>
<line x1="85" y1="209.0" x2="870" y2="209.0" class="grid"/>
<text x="77" y="213.0" text-anchor="end" class="small">24.00</text>
<line x1="85" y1="142.0" x2="870" y2="142.0" class="grid"/>
<text x="77" y="146.0" text-anchor="end" class="small">32.00</text>
<line x1="85" y1="75.0" x2="870" y2="75.0" class="grid"/>
<text x="77" y="79.0" text-anchor="end" class="small">40.00</text>
<line x1="85" y1="75" x2="85" y2="410" class="axis"/>
<line x1="85" y1="410" x2="870" y2="410" class="axis"/>
<rect x="141.5" y="368.1" width="44.0" height="41.9" fill="#59A14F" rx="2"/>
<text x="163.5" y="364.1" text-anchor="middle" class="small">5.00</text>
<text x="163.5" y="434.0" text-anchor="middle" class="label">preprocess</text>
<rect x="298.5" y="368.1" width="44.0" height="41.9" fill="#59A14F" rx="2"/>
<text x="320.5" y="364.1" text-anchor="middle" class="small">5.00</text>
<text x="320.5" y="434.0" text-anchor="middle" class="label">ASR confidence</text>
<rect x="455.5" y="368.1" width="44.0" height="41.9" fill="#59A14F" rx="2"/>
<text x="477.5" y="364.1" text-anchor="middle" class="small">5.00</text>
<text x="477.5" y="434.0" text-anchor="middle" class="label">5-best</text>
<rect x="612.5" y="368.1" width="44.0" height="41.9" fill="#59A14F" rx="2"/>
<text x="634.5" y="364.1" text-anchor="middle" class="small">5.00</text>
<text x="634.5" y="434.0" text-anchor="middle" class="label">diarization</text>
<rect x="769.5" y="368.1" width="44.0" height="41.9" fill="#59A14F" rx="2"/>
<text x="791.5" y="364.1" text-anchor="middle" class="small">5.00</text>
<text x="791.5" y="434.0" text-anchor="middle" class="label">review page</text>
<rect x="85" y="47" width="14" height="14" fill="#59A14F" rx="2"/>
<text x="105" y="59" class="small">completed cases</text>
</svg>
